<?xml version="1.0" encoding="UTF-8"?>
<svg id="Layer_2" xmlns="http://www.w3.org/2000/svg" viewBox="0 0 64.07 86.79">
  <defs>
    <style>
      .cls-1 {
        fill: #fff;
      }

      .cls-2 {
        fill: #dab2cd;
      }
    </style>
  </defs>
  <g id="Layer_1-2" data-name="Layer_1">
    <path class="cls-2" d="M49.89,63.72l-.6,8.84-.8,10.72c-.07,1.07-.27,2.01-.8,2.88-2.28.27-2.61-2.08-2.61-4.29,0-.87.07-1.67.07-2.34.07-1.34.54-2.88.67-4.42.33-3.82.67-9.98,1.27-12.6v-.2c0-.33.27-.47.27-.8.74-.47,1.27-.67,1.61-.67.94,0,.94,1.21.94,2.88Z"/>
    <g>
      <path class="cls-2" d="M52.31,55.91c-2.62,3.23-5.87,6.03-9.32,8.26-9.86,6.28-30.11,10.34-37.17,3.6,2.09-3.39,4.37-6.41,6.66-9.24l.41-.5c8.59-10.61,17.93-18.49,28.12-31.69,4.28.21,9.42,3.62,13.73,7.85,6.98,6.84,4.44,13.23-2.43,21.72ZM41.48,35.32c-3.25,2.79-5.97,5.75-8.6,8.79-1.48,1.63-2.79,3.24-4.18,4.96l-3.27,4.04c-2.78,3.44-5.64,6.97-9.12,10.45,11.82,1.26,27.01-4.68,33.39-12.56,3.03-3.74,4.03-7.83,1.82-11.81-.29-.46-.57-.92-.94-1.28-2.2-2.16-5.76-1.84-9.1-2.59Z"/>
      <g >
        <path class="cls-2" d="M38.88,31.59c2.08,1.99,3.53,4.77,3.11,7.78-3.15,4.43-7.08,5.21-11.08,7.83,2.33,5,1.19,12.37-3.07,17.77-1.7,2.15-3.8,3.94-6.41,5.23-6.36,3-14.3.47-21.22-6.52.52-2.54,1.84-4.8,3.72-7.17,2.5-3.17,5.91-6.47,9.58-10.41l6.37-6.78c2.52-2.76,4.77-5.16,6.18-6.97,1.25-1.58,2.15-2.87,3.16-3.42,2.66-1.49,6.79-.07,9.65,2.67ZM36.19,38.75c.4-.5.68-1,1.01-1.56-.51-1.24-1.05-2.14-1.7-2.76-3.25-3.12-8.29,1.54-11.7,4.84,4.06,3.39,9.21,3.51,12.39-.52ZM27.54,58.24c1.5-3.62.36-9.13-2.9-12.23-1.3-1.24-2.88-2.13-4.91-2.3-.45.71-1.01,1.42-1.53,2.08-3.41,4.32-7.07,7.37-10.03,11.12-1.08,1.36-2.16,2.73-2.91,4.41.45.43.86.94,1.31,1.37,6.57,6.28,13.44,5.53,19.06-1.6.68-.86,1.29-1.78,1.9-2.85Z"/>
        <path class="cls-1" d="M37.2,37.18c-.33.56-.61,1.06-1.01,1.56-3.18,4.03-8.33,3.9-12.39.52,3.41-3.3,8.45-7.96,11.7-4.84.65.62,1.19,1.51,1.7,2.76Z"/>
        <path class="cls-1" d="M24.64,46.01c3.26,3.11,4.39,8.61,2.9,12.23-.61,1.06-1.22,1.99-1.9,2.85-5.62,7.12-12.49,7.88-19.06,1.6-.45-.44-.86-.95-1.31-1.37.75-1.68,1.83-3.05,2.91-4.41,2.96-3.75,6.62-6.8,10.03-11.12.51-.65,1.08-1.36,1.53-2.08,2.03.17,3.61,1.06,4.91,2.3Z"/>
      </g>
      <path class="cls-2" d="M52.9,2.08c1.28,1.05,2.51,3.92,2.92,6.63,2.57-.04,4.81-2.22,7.29-1.72.33.07.65.21.97.35-1.47,3.21-5.23,3.25-8.31,4.3-1.47,8.93-3.77,15.07-11.6,19.07-1.84.82-4.63,1.7-7.61,1.1-1.16-.23-2.36-.71-3.59-1.51-3.47-2.28-4.1-6.7-3.37-11.17.44-2.69,1.41-5.44,2.47-7.7C35.35,4.45,42.75-1.06,48.95.17c1.41.28,2.76.87,3.95,1.9ZM34.31,14.9c-.32.89-.54,1.72-.69,2.64l-.05.31c-.8,4.85.21,9.58,4.43,10.43.66.13,1.34.19,2.12.11,1.89-.1,6.04-2.45,7.56-4.45,2.4-3.18,3.31-8.16,3.9-11.23-1.02-.04-1.94-.15-2.77-.31-2.56-.51-4.35-1.58-6.33-3.02-.78-.95-.15-2.73-1.5-3.32-2.5,2.2-5.38,4.65-6.67,8.85ZM45.63,4.76c-.58,4.02,1.87,4.19,6.01,4.94.22-.27.28-.66.33-.97.3-1.85-1.62-3.66-3.85-4.11-.91-.18-1.68-.18-2.5.14Z"/>
      <path class="cls-2" d="M37.4,65.79l-.43,8.25-.58,10c-.05,1-.22,1.88-.69,2.72-2.07.36-2.41-1.8-2.44-3.86-.01-.81.04-1.56.03-2.18.04-1.25.45-2.7.55-4.14.25-3.57.47-9.31.98-11.77v-.19c0-.31.23-.45.23-.76.66-.47,1.15-.68,1.45-.7.85-.05.87,1.08.89,2.63Z"/>
    </g>
  </g>
</svg>