<?xml version="1.0" encoding="UTF-8"?>
<svg id="Layer_2" xmlns="http://www.w3.org/2000/svg" viewBox="0 0 53.29 11.59">
  <defs>
    <style>
      .cls-1 {
        fill: #dab2cd;
      }
    </style>
  </defs>
  <g id="Landing_Page_with_About">
    <g id="Landing">
      <path class="cls-1" d="M.35.54C.83.1,1.76.08,2.69,0c1.16.68,1.01,2.31,1.7,3.48.49.91,1.32,1.17,1.8,1.97,2.11.88,3.8.84,6.54.94.35.03.64,0,.99-.03,1.39-.12,5.73-.59,7.18-.6.7,0,1.49.37,2.3.41.76.05,1.56-.13,2.21-.02.65.11,1.21.51,1.85.57.77-.57,1.59-1.14,2.41-1.71.51-.16,1.02-.26,1.54-.3l.4-.03c3.81-.33,10.6,1.22,14.18.92,1.1-.09,2.18-.36,3.23-.95.37-.48.79-.9,1.16-1.44.22-.85,0-1.45.32-2.31.4-.09,1.03-.26,1.49-.29.17-.01.35-.03.47.01.52.68.72,1.56.79,2.44.07.77.01,1.51-.11,2.13-.09.29-.42.54-.51.82-.33.86-.5,1.66-1.19,2.33-1.18,1.11-2.88,1.7-4.9,1.87-1.1.09-2.32.09-3.61-.08-1.06-.13-2.1-.71-3.15-.79-1.23-.12-6.13,0-7.11.09-.75.06-1.5.19-1.89.33-.9.3-1.31,1.62-1.94,1.79-1.08.26-1.55-.48-2.35-.97-1.82-.18-3.6-.64-5.51-.47-.75.12-4.46.48-5.21.54-3.06.26-6.78.31-9.31-.7-.42-.19-.62-.45-1.05-.69-.37-.19-.84-.26-1.15-.46-.31-.25-.59-.79-.91-1.15-.7-.66-1.2-1.07-1.86-1.96-.33-.42-.75-.66-.96-.98C.25,4.12.08,3.46.02,2.8-.05,2.02.06,1.23.35.54ZM2.43,5.15c.34.53,1.09,1.19,1.65,1.64,2.15,1.94,4.03,2.22,7.08,2.46.58,0,1.19.29,1.71.3,1.39-.06,5.8-.42,7.19-.54,3.12-.27,5.7,0,8.04.81.89-1.14,2.59-1.62,4.56-1.79,1.62-.14,6.42-.03,8.01.16,1.3.22,2.5.68,3.67.74.52.01,1.11.02,1.74-.04,1.62-.14,3.33-.57,4.17-1.53.8-.85,1.83-2.39,1.67-4.22-.03-.33-.12-.66-.2-.99.02.22.1.44.12.66.18,2.05-1.1,2.77-2.54,3.62-.94.53-1.51.74-2.14.8-.58.05-1.17-.07-2.11-.15-.7-.05-1.39.12-1.98,0-.41-.08-.74-.44-1.15-.51-.77-.1-1.56.08-2.39-.07-.89-.15-1.62-.53-2.43-.57-.35-.02-3.63.02-3.92.04-2.08.18-3.92,1.06-5.79,2.4-2.21-.7-4.64-1.16-6.83-.97-.81.07-4.54.26-5.21.54-2.02-.44-4.24.09-6.12-.09-2.28-.14-3.65-1.19-5.12-2.07-.09-1-.99-1.36-1.39-2-.48-.85-.44-1.75-.93-2.65-.31.42-.38.98-.34,1.48.08.94.58,1.96.98,2.54Z"/>
    </g>
  </g>
</svg>