<svg width="208" height="270" viewBox="0 0 208 270" fill="none" xmlns="http://www.w3.org/2000/svg">
<path fill-rule="evenodd" clip-rule="evenodd" d="M18.7828 0.461401C15.9528 1.89245 15.5002 9.87128 15.431 12.568C15.3499 16.0551 15.2243 19.1368 16.9829 22.4715C13.884 34.3826 17.1636 47.788 20.0557 61.0957C16.8556 60.4307 16.2116 55.7466 15.2633 54.0434C14.1516 52.0563 12.0857 50.6336 11.103 48.6895C10.3108 47.1152 10.3906 45.1809 9.68537 43.7154C7.56954 39.319 5.50763 38.4719 3.07647 37.7837C-1.56336 40.5221 1.64813 46.9212 4.38282 52.0132C9.07717 60.7434 16.6164 67.0623 22.3548 68.8536C25.4327 73.837 27.951 82.7842 31.9237 89.666C29.7047 89.3826 27.6569 88.6464 25.3788 87.8783C23.2989 87.1732 20.5258 86.9289 18.9519 85.6022C16.3444 83.3964 15.3363 74.5479 10.1876 73.4929C4.63842 72.3654 1.73926 80.4686 3.83143 84.1277C6.21007 88.2941 11.1258 88.0173 15.8646 86.6846C21.1648 89.0133 26.4245 91.5121 32.377 91.0644C40.9413 107.412 47.3402 116.987 57.7217 132.58C53.2521 131.583 50.0649 127.348 46.0396 125.203C44.6403 124.46 42.6885 123.862 41.5604 123.38C38.9462 122.246 36.0408 120.292 33.2562 121.436C32.9445 123.433 34.2838 125.012 35.4592 126.34C38.0432 129.266 42.4863 131.803 46.5348 134.088C50.8655 136.535 54.8373 139.074 58.3701 139.697C60.2248 140.022 62.0943 139.367 63.6794 140.166C73.5879 153.57 82.2758 162.357 90.968 173.378C84.1094 170.368 78.1567 163.494 69.5708 167.849C68.9733 172.653 75.6435 178.083 78.5712 178.981C80.9763 179.72 83.6027 180.461 85.4865 181.375C89.5495 181.652 93.8256 181.011 97.791 181.675C99.3947 184.587 103.545 185.769 105.374 187.833C115.636 199.405 128.425 210.744 139.74 221.668C135.006 221.058 126.605 217.718 123.03 223.686C129.68 231.272 138.579 229.231 147.336 227.832C150.884 230.558 154.228 233.832 157.878 236.746C161.484 239.621 165.528 241.991 168.35 244.874C163.156 245.396 158.285 244.557 153.3 244.185C151.368 241.429 148.75 241.608 146.305 241.008C143.81 243.267 141.113 245.746 142.033 248.256C143.103 251.169 148.273 253.518 151.171 252.201C153.776 251.02 153.145 248.597 154.992 246.911C160.919 246.912 166.554 248.18 172.714 247.195C180.685 252.789 189.001 256.922 196.944 262.662C189.897 262.932 182.355 256.373 175.681 262.063C176.951 265.94 182.433 267.487 186.316 268.419C191.685 269.708 197.638 269.921 203.55 268.584C206.292 267.968 206.891 267.243 207.892 265.468C208.369 261.677 203.658 258.658 201.148 254.607C198.398 250.16 194.161 239.995 189.214 242.788C188.219 243.355 187.11 245.584 187.021 246.661C186.737 250.171 191.114 254.386 192.292 257.181C177.515 248.706 163.088 238.757 149.031 227.191C148.976 222.844 145.125 223.235 142.614 221.565C141.192 220.62 139.532 218.723 137.738 217.067C136.2 215.656 134.013 214.114 132.863 212.569C130.129 208.903 129.094 204.742 126.583 199.757C125.118 196.854 121.142 190.791 121.42 188.752C121.43 188.686 121.941 188.577 122.023 188.373C122.296 187.709 121.773 187.98 122.556 187.207C122.996 186.774 123.864 186.898 124.363 186.09C125.222 184.695 125.944 180.68 124.797 178.715C124.427 178.077 122.989 177.609 122.767 177.47C122.428 177.262 122.371 176.42 122.016 176.26C121.702 176.128 120.475 176.559 119.641 176.477C119.306 176.446 118.867 175.987 118.476 175.944C116.796 175.773 114.563 177.036 112.787 178.217C111.759 183.451 118.189 186.136 119.412 189.567C121.399 195.147 125.136 201.548 127.787 207.768C123.226 203.6 118.492 198.721 113.758 193.906C109.247 189.334 104.208 185.014 100.217 180.162C94.5122 173.241 89.3987 165.042 87.4175 158.852C86.0611 154.634 85.0109 151.086 85.1153 147.738C87.5374 145.251 90.9808 144.465 90.9289 141.618C90.86 138.22 86.1585 135.828 82.9311 136.136C80.1451 138.634 79.3942 139.144 78.3978 142.292C82.7395 149.875 84.5644 157.825 87.9543 166.444C80.1611 158.097 72.1401 147.871 65.1963 139.192C65.5935 136.14 63.909 134.597 62.1727 132.293C62.9575 128.279 62.5766 124.393 62.1754 120.177C61.6825 114.91 62.2351 108.473 58.2766 103.79C52.6438 105.479 53.0809 110.04 53.3093 113.974C53.38 115.158 53.1638 116.695 53.2998 117.323C53.8988 120.176 56.1206 122.787 55.302 125.27C49.4124 116.31 42.2495 105.812 37.1412 96.0068C33.659 89.3158 31.4903 84.0236 29.82 78.8148C30.6803 75.6683 29.0006 71.9205 29.8484 68.7675C28.4825 65.1826 26.8676 61.5402 27.6196 58.449C26.6999 53.5899 26.8579 48.9875 26.3132 44.2195C24.2126 41.9582 24.8384 39.8929 22.5299 39.4595C19.5958 40.6613 20.5158 42.7721 18.8266 44.2615C18.7618 44.1561 18.7 44.0603 18.6382 43.9645C18.8173 43.8344 18.9617 43.6942 18.7563 43.476C18.6296 43.2749 18.503 43.0737 18.3764 42.8726C17.9229 36.0407 17.4173 29.9387 18.7045 23.8669C18.7525 23.6209 19.4624 23.9416 19.4994 23.7935C19.5569 23.5446 18.9052 23.1425 18.9406 22.8901C19.3356 19.5658 21.1603 17.4775 22.6533 14.7391C23.3299 13.4969 23.5683 12.1627 24.5496 11.0548C23.7576 8.42098 25.9965 4.46038 23.866 1.8728C22.7075 0.466909 20.4183 -0.402601 18.7928 0.426765L18.7828 0.461401ZM4.35037 41.1775C4.51655 41.9011 4.04924 42.4791 3.40222 43.0197C3.22445 42.2263 3.0899 40.8738 4.35037 41.1775ZM3.54597 44.6C5.33106 46.3948 6.49642 50.274 7.8053 52.8176C6.07073 51.4473 4.68533 46.6413 3.54597 44.6ZM7.69676 53.303C7.89792 53.1763 8.09908 53.0497 8.30326 52.9326C8.42989 53.1338 8.55652 53.3349 8.68315 53.5361C8.48199 53.6627 8.28083 53.7894 8.07967 53.916C7.95304 53.7148 7.82641 53.5137 7.70931 53.3095L7.69676 53.303ZM11.6686 58.3599C12.4948 58.5179 13.1659 59.3123 13.7725 60.4C12.9663 60.1727 12.3667 59.041 11.6686 58.3599ZM13.9514 60.6999C14.6433 60.334 15.0719 61.0584 15.4936 61.827C14.8018 62.1929 14.3731 61.4685 13.9514 60.6999ZM8.03604 76.0727C10.3067 76.2873 12.3508 77.4757 14.0128 80.3061C13.2088 80.9802 12.4939 82.0352 11.4843 82.292C10.9388 83.0206 11.471 84.0059 11.4014 84.8461C6.39268 86.8831 3.81347 78.4063 8.04256 76.0602L8.03604 76.0727ZM38.0676 125.136C38.5182 125.035 38.9278 125.136 39.2329 125.669C38.7823 125.77 38.3727 125.669 38.0676 125.136ZM126.983 223.316C127.321 223.324 127.669 223.329 128.075 223.054C128.623 224.422 126.787 224.951 126.983 223.316ZM180.084 263.081C180.396 262.542 182.957 261.752 183.73 262.902C182.791 262.654 182.213 263.645 181.616 264.211C180.979 264.35 180.75 262.765 180.081 263.072L180.084 263.081ZM197.19 267.084C197.743 266.049 199.667 267.286 197.19 267.084ZM197.084 252.107C196.327 252.4 196.04 250.697 195.469 250.185C196.157 250.439 197.27 251.335 197.084 252.107ZM190.025 248.133C192.255 249.577 194.973 253.72 196.056 256.513C193.207 255.433 191.154 251.3 190.025 248.133ZM117.933 183.804C116.55 182.648 115.36 181.409 115.315 179.577C119.323 177.228 124.202 179.816 122.563 183.849C120.918 184.286 119.771 182.551 117.93 183.795L117.933 183.804ZM86.9134 174.221C87.4755 173.644 87.7026 174.527 88.1967 174.266C88.6227 174.75 87.0374 175.01 86.9134 174.221ZM24.3177 57.1973C22.9168 54.4626 22.9615 49.8332 22.6954 46.5084C23.5637 49.1181 23.7334 53.795 24.3177 57.1973ZM22.094 10.5211C20.2556 12.4669 19.549 13.1836 18.2023 15.0261C17.7178 10.8789 17.7724 6.84416 20.1557 3.37279C23.1906 5.33834 21.1391 8.20118 22.0874 10.5337L22.094 10.5211Z" fill="#DAB2CD" fill-opacity="0.2"/>
</svg>
