<svg width="88" height="57" viewBox="0 0 88 57" fill="none" xmlns="http://www.w3.org/2000/svg">
<path d="M12.4369 6.25013L5.7807 0.71893C6.9174 0.23846 8.1401 -0.00762966 9.3745 0.000180338H78.1245C79.3589 -0.00763166 80.5815 0.23846 81.7183 0.71893L75.0621 6.25013L45.7811 30.5311C44.6053 31.4569 42.9569 31.4804 41.7499 30.5936L12.4369 6.25013ZM86.3749 5.00013L81.2187 9.25013L49.7497 35.4061C48.0388 36.7499 45.9255 37.4881 43.7497 37.4999C41.5935 37.5077 39.4997 36.7812 37.8122 35.4374L6.2812 9.24943L1.125 4.99943C0.39844 6.34323 0.0117 7.84713 0 9.37443V46.8744C0.015625 52.0463 4.2031 56.2338 9.375 56.2494H78.125C83.2969 56.2338 87.4844 52.0463 87.5 46.8744V9.37443C87.4883 7.84713 87.1015 6.34393 86.3749 5.00013Z" fill="black"/>
</svg>
