<svg width="63" height="83" viewBox="0 0 63 83" fill="none" xmlns="http://www.w3.org/2000/svg">
<path d="M60.8869 63.2086L56.0158 55.2008V55.2047C53.3205 50.7867 47.5549 49.3844 43.1368 52.0797L39.1134 54.5289C37.922 55.2711 36.379 55.1109 35.3634 54.1422C28.922 47.8024 24.1564 39.9622 21.4884 31.3302C21.1095 29.9825 21.6798 28.549 22.8829 27.8302L26.9063 25.3849L26.9024 25.381C31.3243 22.6857 32.7227 16.9201 30.0274 12.502L25.1524 4.49418C22.4571 0.0761819 16.6915 -1.32222 12.2734 1.36918L4.50391 6.07618C1.70701 7.75588 -0.00389335 10.7793 6.6533e-06 14.041C-0.00389935 27.9 3.79691 41.494 10.984 53.342C18.2067 65.096 28.472 74.678 40.695 81.076C42.0661 81.7947 43.5934 82.1737 45.1442 82.1776C46.8551 82.1776 48.5348 81.7049 49.9958 80.8143L57.7575 76.0877C62.1755 73.3924 63.5739 67.6268 60.8825 63.2087L60.8869 63.2086Z" fill="black"/>
</svg>
